# xmcd CD database file
#
# Track frame offsets:
#	150
#	13010
#	26847
#	40712
#	53822
#	65692
#	77947
#	98330
#	117427
#	131047
#	144297
#	159160
#	173115
#	187630
#	203647
#	218607
#	232717
#	246112
#	260570
#	274582
#
# Disc length: 3865 seconds
#
# Revision: 0
# Processed by: cddbd v1.5.2PL0 Copyright (c) Steve Scherf et al.
# Submitted via: CDex 1.75
#
DISCID=020f1714
DTITLE=Louis Armstrong - Readers Digest - Cd3 - L'innoubliable Louis Armstrong
DYEAR=2000
DGENRE=Jazz
TTITLE0=2:19 Blues
TTITLE1=Down In Honky Town
TTITLE2=Perdido Street Blues
TTITLE3=You Wan't Be Satisfied
TTITLE4=Boog It
TTITLE5=Darling Nelly Grey
TTITLE6=Long Long Journey
TTITLE7=Snafu
TTITLE8=Jack - Armstrong Blues
TTITLE9=No Variety Blues
TTITLE10=Back O'town Blues
TTITLE11=Blues In Teh South
TTITLE12=I've Got The World On A String
TTITLE13=Star Dust
TTITLE14=Body And Soul
TTITLE15=I'm In The Mood For Love
TTITLE16=Between The Devil And The Deep Blue Sea
TTITLE17=Memories Of You
TTITLE18=Lazy River
TTITLE19=Ain't Misbehavin
EXTD=YEAR: 2000
EXTT0=
EXTT1=
EXTT2=
EXTT3=
EXTT4=
EXTT5=
EXTT6=
EXTT7=
EXTT8=
EXTT9=
EXTT10=
EXTT11=
EXTT12=
EXTT13=
EXTT14=
EXTT15=
EXTT16=
EXTT17=
EXTT18=
EXTT19=
PLAYORDER=
